<svg width="41" height="40" viewBox="0 0 41 40" fill="none" xmlns="http://www.w3.org/2000/svg">
<path d="M0.5 20C0.5 8.95431 9.45431 0 20.5 0C31.5457 0 40.5 8.95431 40.5 20C40.5 31.0457 31.5457 40 20.5 40C9.45431 40 0.5 31.0457 0.5 20Z" fill="white"/>
<path d="M24.531 12.8125H24.532C25.0393 12.8127 25.5423 12.9008 26.0183 13.0732L26.2205 13.1523C26.6883 13.3486 27.1177 13.6249 27.49 13.9678L27.6462 14.1191C28.4751 14.963 28.9392 16.0984 28.9392 17.2812C28.9392 18.3902 28.5317 19.4578 27.7976 20.2822L27.6462 20.4434L20.4998 27.6797L13.3542 20.4434C12.5255 19.5996 12.0613 18.464 12.0613 17.2812C12.0613 16.1722 12.4696 15.1047 13.2039 14.2803L13.3542 14.1191C13.7608 13.7058 14.2463 13.3774 14.781 13.1533C15.3157 12.9293 15.8898 12.8135 16.4695 12.8135C17.0492 12.8135 17.6233 12.9292 18.158 13.1533C18.6257 13.3493 19.0551 13.6251 19.4275 13.9678L19.5837 14.1191L19.5847 14.1201L20.2781 14.8203L20.5007 15.0439L20.7224 14.8203L21.4158 14.1201L21.4177 14.1191C21.773 13.7569 22.1878 13.4591 22.6443 13.2402L22.8425 13.1514C23.3104 12.9551 23.8086 12.8422 24.3142 12.8174L24.531 12.8125ZM24.531 13.4375C24.0322 13.4369 23.5382 13.5369 23.0789 13.7314C22.6767 13.9018 22.3082 14.1417 21.99 14.4395L21.8582 14.5684L20.5007 15.9521L19.1365 14.5566L19.1355 14.5557L19.0027 14.4268C18.6839 14.1328 18.3155 13.8966 17.9148 13.7285C17.4571 13.5365 16.9658 13.4375 16.4695 13.4375C15.973 13.4375 15.4811 13.5364 15.0232 13.7285C14.6226 13.8966 14.255 14.133 13.9363 14.4268L13.8025 14.5557C13.0885 15.2806 12.6882 16.2579 12.6882 17.2754C12.6883 18.2292 13.0403 19.1472 13.6726 19.8555L13.8025 19.9941H13.8035L20.2781 26.5508L20.5007 26.7764L20.7224 26.5508L27.198 19.9941C27.912 19.2693 28.3122 18.2928 28.3123 17.2754C28.3123 16.3213 27.9604 15.4028 27.3279 14.6943L27.198 14.5557C26.8504 14.2014 26.4359 13.9195 25.9783 13.7275C25.5203 13.5354 25.0277 13.4371 24.531 13.4375Z" fill="#BDBDBD" stroke="#252B42" stroke-width="0.625"/>
</svg>
