<svg width="131" height="23" viewBox="0 0 131 23" fill="none" xmlns="http://www.w3.org/2000/svg">
<g clip-path="url(#clip0_1_285)">
<path d="M20.5967 8.41939C20.539 8.24958 20.4329 8.10037 20.2914 7.99018C20.1499 7.87999 19.9793 7.81365 19.8005 7.79934L14.5714 7.38383L12.3086 2.37482C12.2365 2.21349 12.1193 2.07646 11.9711 1.98028C11.8228 1.88409 11.65 1.83286 11.4733 1.83276C11.2966 1.83267 11.1236 1.88371 10.9753 1.97973C10.827 2.07575 10.7096 2.21265 10.6374 2.3739L8.37455 7.38383L3.14539 7.79934C2.9697 7.81326 2.80174 7.8775 2.6616 7.98438C2.52147 8.09125 2.41509 8.23624 2.35519 8.40199C2.2953 8.56774 2.28442 8.74724 2.32387 8.91901C2.36332 9.09078 2.45142 9.24755 2.57763 9.37056L6.44193 13.1376L5.07526 19.0556C5.03376 19.2348 5.04706 19.4222 5.11343 19.5937C5.1798 19.7652 5.29618 19.9128 5.44747 20.0173C5.59876 20.1218 5.77797 20.1785 5.96184 20.1799C6.14571 20.1813 6.32576 20.1274 6.47862 20.0252L11.473 16.6956L16.4673 20.0252C16.6235 20.1289 16.8078 20.1823 16.9953 20.1782C17.1828 20.1741 17.3645 20.1126 17.5161 20.0022C17.6676 19.8917 17.7817 19.7374 17.8429 19.5602C17.9042 19.3829 17.9097 19.1912 17.8587 19.0107L16.1811 13.1404L20.3417 9.39625C20.6141 9.15043 20.7141 8.76702 20.5967 8.41939Z" fill="#F3CD03"/>
<path d="M47.6116 8.41939C47.554 8.24958 47.4478 8.10037 47.3064 7.99018C47.1649 7.87999 46.9942 7.81365 46.8155 7.79934L41.5863 7.38383L39.3235 2.37482C39.2514 2.21349 39.1342 2.07646 38.986 1.98028C38.8378 1.88409 38.6649 1.83286 38.4882 1.83276C38.3115 1.83267 38.1385 1.88371 37.9902 1.97973C37.8419 2.07575 37.7245 2.21265 37.6523 2.3739L35.3895 7.38383L30.1603 7.79934C29.9846 7.81326 29.8167 7.8775 29.6765 7.98438C29.5364 8.09125 29.43 8.23624 29.3701 8.40199C29.3102 8.56774 29.2993 8.74724 29.3388 8.91901C29.3782 9.09078 29.4663 9.24755 29.5926 9.37056L33.4569 13.1376L32.0902 19.0556C32.0487 19.2348 32.062 19.4222 32.1284 19.5937C32.1947 19.7652 32.3111 19.9128 32.4624 20.0173C32.6137 20.1218 32.7929 20.1785 32.9768 20.1799C33.1606 20.1813 33.3407 20.1274 33.4935 20.0252L38.4879 16.6956L43.4822 20.0252C43.6385 20.1289 43.8227 20.1823 44.0102 20.1782C44.1977 20.1741 44.3794 20.1126 44.531 20.0022C44.6825 19.8917 44.7966 19.7374 44.8579 19.5602C44.9191 19.3829 44.9246 19.1912 44.8737 19.0107L43.196 13.1404L47.3566 9.39625C47.629 9.15043 47.729 8.76702 47.6116 8.41939Z" fill="#F3CD03"/>
<path d="M74.6227 8.41939C74.565 8.24958 74.4589 8.10037 74.3174 7.99018C74.1759 7.87999 74.0053 7.81365 73.8265 7.79934L68.5974 7.38383L66.3345 2.37482C66.2625 2.21349 66.1453 2.07646 65.997 1.98028C65.8488 1.88409 65.6759 1.83286 65.4992 1.83276C65.3225 1.83267 65.1496 1.88371 65.0013 1.97973C64.8529 2.07575 64.7356 2.21265 64.6633 2.3739L62.4005 7.38383L57.1714 7.79934C56.9957 7.81326 56.8277 7.8775 56.6876 7.98438C56.5474 8.09125 56.4411 8.23624 56.3812 8.40199C56.3213 8.56774 56.3104 8.74724 56.3498 8.91901C56.3893 9.09078 56.4774 9.24755 56.6036 9.37056L60.4679 13.1376L59.1012 19.0556C59.0597 19.2348 59.073 19.4222 59.1394 19.5937C59.2058 19.7652 59.3222 19.9128 59.4734 20.0173C59.6247 20.1218 59.8039 20.1785 59.9878 20.1799C60.1717 20.1813 60.3517 20.1274 60.5046 20.0252L65.4989 16.6956L70.4933 20.0252C70.6495 20.1289 70.8338 20.1823 71.0213 20.1782C71.2088 20.1741 71.3905 20.1126 71.542 20.0022C71.6936 19.8917 71.8076 19.7374 71.8689 19.5602C71.9302 19.3829 71.9357 19.1912 71.8847 19.0107L70.2071 13.1404L74.3677 9.39625C74.6401 9.15043 74.7401 8.76702 74.6227 8.41939Z" fill="#F3CD03"/>
<path d="M101.637 8.41939C101.579 8.24958 101.473 8.10037 101.331 7.99018C101.19 7.87999 101.019 7.81365 100.84 7.79934L95.6113 7.38383L93.3485 2.37482C93.2764 2.21349 93.1592 2.07646 93.011 1.98028C92.8628 1.88409 92.6899 1.83286 92.5132 1.83276C92.3365 1.83267 92.1636 1.88371 92.0152 1.97973C91.8669 2.07575 91.7496 2.21265 91.6773 2.3739L89.4145 7.38383L84.1853 7.79934C84.0097 7.81326 83.8417 7.8775 83.7016 7.98438C83.5614 8.09125 83.455 8.23624 83.3951 8.40199C83.3352 8.56774 83.3244 8.74724 83.3638 8.91901C83.4033 9.09078 83.4914 9.24755 83.6176 9.37056L87.4819 13.1376L86.1152 19.0556C86.0737 19.2348 86.087 19.4222 86.1534 19.5937C86.2198 19.7652 86.3361 19.9128 86.4874 20.0173C86.6387 20.1218 86.8179 20.1785 87.0018 20.1799C87.1857 20.1813 87.3657 20.1274 87.5186 20.0252L92.5129 16.6956L97.5073 20.0252C97.6635 20.1289 97.8477 20.1823 98.0352 20.1782C98.2227 20.1741 98.4045 20.1126 98.556 20.0022C98.7076 19.8917 98.8216 19.7374 98.8829 19.5602C98.9442 19.3829 98.9497 19.1912 98.8987 19.0107L97.2211 13.1404L101.382 9.39625C101.654 9.15043 101.754 8.76702 101.637 8.41939Z" fill="#F3CD03"/>
<path d="M114.498 13.1377L113.131 19.0557C113.089 19.2349 113.101 19.4227 113.167 19.5945C113.234 19.7664 113.35 19.9143 113.501 20.0191C113.653 20.1238 113.832 20.1804 114.016 20.1814C114.201 20.1825 114.381 20.1281 114.533 20.0252L119.528 16.6956L124.522 20.0252C124.678 20.1289 124.863 20.1823 125.05 20.1782C125.238 20.1741 125.419 20.1127 125.571 20.0022C125.722 19.8917 125.837 19.7375 125.898 19.5602C125.959 19.383 125.965 19.1912 125.914 19.0107L124.236 13.1404L128.397 9.39628C128.53 9.27629 128.625 9.11988 128.67 8.94638C128.716 8.77289 128.709 8.58992 128.651 8.4201C128.594 8.25029 128.488 8.10107 128.346 7.99091C128.205 7.88075 128.034 7.81448 127.855 7.80029L122.626 7.38386L120.363 2.37485C120.291 2.21356 120.174 2.0766 120.026 1.98049C119.877 1.88439 119.705 1.83325 119.528 1.83325C119.351 1.83325 119.178 1.88439 119.03 1.98049C118.882 2.0766 118.764 2.21356 118.692 2.37485L116.429 7.38386L111.2 7.79937C111.025 7.81329 110.857 7.87753 110.716 7.98441C110.576 8.09128 110.47 8.23627 110.41 8.40202C110.35 8.56777 110.339 8.74727 110.379 8.91904C110.418 9.09081 110.506 9.24758 110.632 9.37059L114.498 13.1377ZM117.115 9.16972C117.278 9.15682 117.436 9.10012 117.57 9.00555C117.704 8.91098 117.81 8.78203 117.878 8.63222L119.528 4.98071L121.178 8.63222C121.245 8.78203 121.352 8.91098 121.486 9.00555C121.62 9.10012 121.777 9.15682 121.941 9.16972L125.584 9.45865L122.584 12.159C122.324 12.3938 122.22 12.7552 122.315 13.0927L123.465 17.1148L120.038 14.83C119.887 14.729 119.71 14.6751 119.529 14.6751C119.348 14.6751 119.171 14.729 119.021 14.83L115.44 17.2175L116.403 13.0478C116.438 12.8944 116.433 12.7346 116.389 12.5836C116.345 12.4326 116.262 12.2955 116.15 12.1856L113.363 9.46874L117.115 9.16972Z" fill="#F3CD03"/>
</g>
<defs>
<clipPath id="clip0_1_285">
<rect width="130.068" height="22.0136" fill="white" transform="translate(0.465942)"/>
</clipPath>
</defs>
</svg>
